<svg xmlns="http://www.w3.org/2000/svg" viewBox="0 0 410 84"><rect width="410" height="84" fill="#0E2238"/>
<g transform="translate(6,2) scale(1.05)">
<circle cx="36" cy="7" r="4.4" fill="#E8B04B"/>
<path d="M8 72 V46 C8 34.5 14 27.5 22.5 22.5 Q30.5 18 36 16 Q41.5 18 49.5 22.5 C58 27.5 64 34.5 64 46 V72"
 fill="none" stroke="#FFFFFF" stroke-width="7.5" stroke-linecap="round" stroke-linejoin="round"/>
</g>
<g transform="translate(112,-8)" fill="none" stroke="#FFFFFF" stroke-width="6" stroke-linecap="round">
<path d="M12 18 V48 a10 10 0 0 0 10 10 h3"/>
<path d="M2 30 H26"/>
<circle cx="52" cy="45" r="12.5"/>
<path d="M64.5 31 V58"/>
<path d="M86 30 V56 a10 10 0 0 1 -10 10 h-3"/>
<circle cx="86" cy="18" r="4.6" fill="#E8B04B" stroke="none"/>
</g>
<text x="216" y="50" font-family="Sora, Avenir, Futura, 'Trebuchet MS', sans-serif" font-weight="500" font-size="24" fill="#B9C6D4" letter-spacing="0.5">web studio</text>
<text x="114" y="76" font-family="Inter, 'Helvetica Neue', Arial, sans-serif" font-weight="600" font-size="10.5" letter-spacing="3" fill="#E8B04B">BUILT TO BE FOUND</text>
</svg>